{
	"accessors": [
		{
			"bufferView": 2,
			"componentType": 5126,
			"count": 1767,
			"max": [269.33831787109375, 235.59202575683594, 49.12588119506836],
			"min": [-78.13551330566406, -28.73326873779297, -76.59650421142578],
			"type": "VEC3"
		},
		{
			"bufferView": 2,
			"byteOffset": 21204,
			"componentType": 5126,
			"count": 1767,
			"max": [0.9982781410217285, 0.9990662336349487, 0.9992144703865051],
			"min": [-0.9873172044754028, -0.9901466369628906, -0.9991459846496582],
			"type": "VEC3"
		},
		{
			"bufferView": 1,
			"componentType": 5126,
			"count": 1767,
			"max": [0.987999677658081, 0.9861860871315002],
			"min": [0.01182129979133606, 0.011721432209014893],
			"type": "VEC2"
		},
		{
			"bufferView": 0,
			"componentType": 5125,
			"count": 4851,
			"type": "SCALAR"
		}
	],
	"asset": {
		"extras": {
			"author": "Batuhan13 (https://sketchfab.com/Batuhan13)",
			"license": "CC-BY-4.0 (http://creativecommons.org/licenses/by/4.0/)",
			"source": "https://sketchfab.com/3d-models/swordtember-2024-day-22-insect-ad75af6a5d5d4c0cb1a3813b18697ca8",
			"title": "Swordtember 2024 Day 22: Insect"
		},
		"generator": "Sketchfab-16.45.0",
		"version": "2.0"
	},
	"bufferViews": [
		{
			"buffer": 0,
			"byteLength": 19404,
			"name": "floatBufferViews",
			"target": 34963
		},
		{
			"buffer": 0,
			"byteLength": 14136,
			"byteOffset": 19404,
			"byteStride": 8,
			"name": "floatBufferViews",
			"target": 34962
		},
		{
			"buffer": 0,
			"byteLength": 42408,
			"byteOffset": 33540,
			"byteStride": 12,
			"name": "floatBufferViews",
			"target": 34962
		}
	],
	"buffers": [
		{
			"byteLength": 75948,
			"uri": "scene.bin"
		}
	],
	"extensionsUsed": ["KHR_materials_unlit"],
	"images": [
		{
			"uri": "textures/BugSword_baseColor.png"
		}
	],
	"materials": [
		{
			"doubleSided": true,
			"extensions": {
				"KHR_materials_unlit": {}
			},
			"name": "BugSword",
			"pbrMetallicRoughness": {
				"baseColorTexture": {
					"index": 0
				},
				"metallicFactor": 0.0
			}
		}
	],
	"meshes": [
		{
			"name": "Plane.006_BugSword_0",
			"primitives": [
				{
					"attributes": {
						"NORMAL": 1,
						"POSITION": 0,
						"TEXCOORD_0": 2
					},
					"indices": 3,
					"material": 0,
					"mode": 4
				}
			]
		}
	],
	"nodes": [
		{
			"children": [1],
			"matrix": [
				1.0, 0.0, 0.0, 0.0, 0.0, 2.220446049250313e-16, -1.0, 0.0, 0.0, 1.0, 2.220446049250313e-16,
				0.0, 0.0, 0.0, 0.0, 1.0
			],
			"name": "Sketchfab_model"
		},
		{
			"children": [2],
			"matrix": [
				0.009999999776482582, 0.0, 0.0, 0.0, 0.0, 0.0, 0.009999999776482582, 0.0, 0.0,
				-0.009999999776482582, 0.0, 0.0, 0.0, 0.0, 0.0, 1.0
			],
			"name": "602975a9ee514fd28f6312f9c2607654.fbx"
		},
		{
			"children": [3],
			"name": "RootNode"
		},
		{
			"children": [4],
			"matrix": [
				1.0, 0.0, 0.0, 0.0, 0.0, 1.0, 0.0, 0.0, 0.0, 0.0, 1.0, 0.0, 18.604711532592773,
				7.377347469329834, 1.3597309589385986e-5, 1.0
			],
			"name": "Plane.006"
		},
		{
			"mesh": 0,
			"name": "Plane.006_BugSword_0"
		}
	],
	"samplers": [
		{
			"magFilter": 9729,
			"minFilter": 9987,
			"wrapS": 10497,
			"wrapT": 10497
		}
	],
	"scene": 0,
	"scenes": [
		{
			"name": "Sketchfab_Scene",
			"nodes": [0]
		}
	],
	"textures": [
		{
			"sampler": 0,
			"source": 0
		}
	]
}
